<svg version="1.2" xmlns="http://www.w3.org/2000/svg" viewBox="0 0 1080 1080" width="1080" height="1080">
	<style>
		.s0 { fill: #666057 }
	</style>
	<g id="Layer 1">
	</g>
	<path class="s0" d="m366.76 610.89l14.81 2.96v9.22h-56.3v-9.22l15.48-2.96q0.33-8.56 0.33-18.44 0-9.88 0-17.78v-21.23q0-14.49-3.63-20.58-3.62-6.09-12.51-6.09-7.41 0-14.32 3.62-6.91 3.45-14.49 10.7v33.58q0 7.57 0 17.62 0 9.87 0.17 18.6l14.81 2.96v9.22h-56.46v-9.22l15.64-2.96q0.16-8.73 0.16-18.6 0-10.05 0-17.62v-12.35q0-9.54-0.16-15.31-0.33-5.92-0.5-12.84l-16.79-2.14v-8.56l37.04-14.16 3.46 2.31 1.81 18.44q9.22-10.37 18.6-15.64 9.39-5.11 20.91-5.11 15.8 0 23.87 9.72 7.9 9.88 7.9 31.77v23.87q0 7.9 0 17.78 0 9.88 0.17 18.44zm84.95-101.58q10.53 0 20.74 3.79 10.04 3.95 17.78 11.53 7.74 7.73 12.51 18.6 4.61 11.03 4.61 25.02 0 13.99-4.45 24.86-4.44 10.87-12.01 18.27-7.74 7.58-17.78 11.36-10.21 3.79-21.4 3.79-11.36 0-21.57-3.79-10.04-3.78-17.62-11.36-7.73-7.4-12.18-18.27-4.44-10.87-4.44-24.86 0-13.99 4.61-25.02 4.61-10.87 12.34-18.6 7.91-7.58 17.95-11.53 10.04-3.79 20.91-3.79zm0 10.71q-13.67 0-20.75 12.18-6.91 12.02-6.91 35.89 0 23.87 6.91 35.72 7.08 11.69 20.75 11.69 13.49 0 20.57-11.69 7.08-11.85 7.08-35.72 0-23.87-7.08-35.89-7.08-12.18-20.57-12.18zm182.07-6.59v9.71l-13.66 2.47-39.35 99.77h-11.36l-41.32-99.93-12.84-2.31v-9.71h59.43v9.71l-18.11 2.97 25.52 68.65 25.19-68.98-16.63-2.64v-9.71zm39.18-26.34q-7.41 0-12.51-4.61-5.1-4.61-5.1-12.02 0-7.24 5.1-11.85 5.1-4.61 12.51-4.61 7.25 0 12.35 4.61 4.94 4.61 4.94 11.85 0 7.41-4.94 12.02-5.1 4.61-12.35 4.61zm13.34 123.8l14.48 2.96v9.22h-56.3v-9.22l15.81-2.96q0.16-8.73 0.16-18.6 0-10.05 0-17.62v-11.52q0-9.39-0.16-15.81-0.33-6.25-0.5-13.17l-16.79-2.14v-8.56l40.33-14.16 3.46 2.31-0.82 31.94v31.11q0 7.57 0 17.62 0 10.04 0.33 18.6zm134.83-4.61l5.27 4.61q-4.45 8.56-9.55 11.52-5.27 2.97-12.51 2.97-9.72 0-15.48-4.12-5.76-4.11-7.9-11.36-4.12 4.28-7.9 7.41-3.79 2.96-7.58 5.1-3.78 2.14-8.23 3.13-4.44 0.99-9.71 0.99-13.17 0-22.06-7.24-9.06-7.25-9.06-21.08 0-5.1 1.65-9.87 1.65-4.94 6.09-9.55 4.45-4.78 12.51-9.22 7.91-4.28 20.42-8.73 4.61-1.64 10.7-3.29 6.09-1.81 12.35-3.62v-6.26q0-15.64-4.78-21.56-4.77-6.09-15.97-6.09-2.14 0-4.61 0.32-2.3 0.17-4.94 0.66l-3.12 14.82q-2.8 14.49-14.33 14.49-5.1 0-8.39-2.97-3.13-3.12-3.79-7.9 2.31-13.33 14.65-21.73 12.51-8.4 32.6-8.4 19.75 0 28.81 9.55 9.22 9.72 9.22 33.75v48.4q0 10.87 6.58 10.87 2.64 0 4.45-1.32 1.81-1.32 3.46-3.13zm-41-5.59v-37.21q-5.43 1.48-10.04 3.13-4.77 1.64-8.07 2.8-12.34 4.77-16.29 11.03-3.96 6.09-3.96 12.18 0 4.61 1.32 7.41 1.32 2.8 3.29 4.94 5.11 4.93 13.34 4.93 4.61 0 8.89-1.81 4.28-1.97 11.52-7.4z"/>
</svg>