<svg version="1.2" xmlns="http://www.w3.org/2000/svg" viewBox="0 0 1080 1080" width="1080" height="1080">
	<style>
		.s0 { fill: #182c1b }
	</style>
	<g id="b5bb399b-c0d1-4ef4-b50d-68e16ff504df">
		<path class="s0" d="m736.23 271.06c-7.86-12.1-28.73-2.72-39.46-1.06-9.46 1.45-19.01 2.23-28.59 2.33-9.57 0.1-19.13-0.47-28.63-1.73-9.49-1.25-18.88-3.17-28.09-5.75-9.22-2.58-18.25-5.81-27.01-9.67-1.06-0.45-1.51 1.06-0.6 1.52q9.27 5.02 19.08 8.9 9.8 3.87 20 6.55 10.2 2.67 20.65 4.11 10.45 1.43 20.99 1.6 5.15 0.15 10.29-0.05 5.15-0.2 10.27-0.75 5.12-0.55 10.19-1.45 5.07-0.89 10.07-2.13c7.1-1.52 18.59-7.56 25.09-2.42 10.58 8.46-7.56 20.56-13.6 23.88l-0.31 0.15q1.78-1.44 3.24-3.21 1.46-1.77 2.53-3.8 1.07-2.03 1.71-4.22 0.65-2.2 0.84-4.49 0.06-0.58-0.1-1.15-0.15-0.57-0.51-1.03-0.36-0.47-0.87-0.76-0.51-0.3-1.09-0.38c-22.83-0.91-45.65 16.02-68.03 9.22-0.17-0.01-0.34-0.02-0.49 0.03q-0.24 0.08-0.35 0.3-0.11 0.23-0.03 0.46 0.08 0.24 0.3 0.35c22.34 9.29 43.05-2.96 65.42-4.47v1.21c-14.05 2.12-25.24 12.25-39.3 14.51q-6.71 0.21-13.35-0.76-6.64-0.97-13.01-3.1-6.36-2.13-12.25-5.35-5.89-3.21-11.12-7.42-0.34-0.13-0.7-0.04-0.35 0.11-0.56 0.4-0.21 0.3-0.2 0.66 0.01 0.37 0.25 0.65 4.43 4.78 9.64 8.69 5.21 3.92 11.04 6.84 5.83 2.92 12.08 4.76 6.26 1.84 12.74 2.53 4.59-0.62 9.06-1.81 4.48-1.18 8.78-2.9 4.3-1.72 8.36-3.95 4.06-2.23 7.81-4.94c0.93 4.4 1.4 8.88 1.38 13.38-0.01 4.5-0.5 8.98-1.47 13.37-0.96 4.39-2.38 8.67-4.25 12.76-1.86 4.1-4.16 7.98-6.85 11.58l0.76 0.76c3.4-3.33 6.3-7.14 8.61-11.29 2.32-4.16 4.03-8.62 5.09-13.26 1.05-4.64 1.43-9.41 1.14-14.16-0.3-4.74-1.27-9.43-2.9-13.9l8.32-4.08q-0.34 0.86-0.72 1.7-0.39 0.84-0.82 1.66-0.44 0.81-0.92 1.6-0.49 0.79-1.02 1.54-0.21 0.36-0.17 0.77 0.05 0.42 0.35 0.72 0.29 0.29 0.71 0.34 0.41 0.05 0.77-0.17c-1.51 1.21 0 4.09 1.82 3.03 8.31-3.93 24.94-16.03 17.99-27.21z"/>
		<path class="s0" d="m693.75 326.99q-1.51-0.45-3.08-0.58-1.57-0.13-3.13 0.06-1.56 0.2-3.05 0.71-1.49 0.51-2.84 1.32l0.31 0.45q1.42-0.32 2.87-0.36 1.46-0.05 2.9 0.18 1.43 0.24 2.8 0.74 1.37 0.5 2.61 1.26c2.27 1.51 3.48 4.38 6.05 5.14l1.21-0.76c1.06-3.63-3.78-6.8-6.65-8.16zm14.06 26q-2.03-0.41-3.98-1.09-1.95-0.68-3.79-1.62-1.84-0.94-3.53-2.12-1.7-1.18-3.22-2.58-1.02-1.01-2.14-1.92-1.12-0.91-2.31-1.71-1.2-0.79-2.47-1.48-1.27-0.68-2.6-1.24-0.3 0.01-0.58 0.12-0.28 0.12-0.49 0.33-0.21 0.21-0.33 0.49-0.11 0.28-0.11 0.58c1.51 9.97 17.38 12.39 25.4 13.3 0.75 0 0.75-0.91 0.15-1.06zm-5.14 19.65q-0.96-1.89-1.87-3.82-0.9-1.92-1.75-3.87-0.85-1.94-1.65-3.91-0.8-1.98-1.54-3.97l-0.45 0.15q0.47 2.08 1.09 4.12 0.62 2.04 1.37 4.03 0.76 2 1.66 3.93 0.9 1.93 1.93 3.8l1.06 1.66q0.69 0.4 1.15 1.07 0.44 0.67 0.56 1.47 0.11 0.79-0.14 1.56-0.26 0.76-0.82 1.34 0 2.57-1.96 2.57c-2.88 1.51-8.92-1.06-12.1-1.51-0.48-0.06-0.97 0.03-1.37 0.3-0.4 0.26-0.68 0.67-0.78 1.14-0.1 0.47-0.01 0.97 0.26 1.37 0.26 0.4 0.67 0.68 1.14 0.78 3.78 2.15 16.32 2.76 17.68-3.44 0.61-3.02-2.26-6.35-3.47-8.77zm-13.15 21.47q-0.89-0.06-1.78-0.01-0.9 0.05-1.77 0.2-0.88 0.16-1.74 0.41-0.85 0.26-1.67 0.61c-2.57 0.75-5.44-0.3-7.86 0.75l-0.3 1.06c1.81 2.12 5.29 1.97 7.86 1.97h0.91l0.3 2.11q-0.09 0.43-0.09 0.86-0.01 0.44 0.07 0.87 0.08 0.42 0.23 0.83 0.16 0.4 0.39 0.77h0.31q0.28-0.37 0.49-0.78 0.2-0.42 0.32-0.86 0.11-0.45 0.14-0.92 0.02-0.46-0.05-0.92l0.46-1.96q0.65-0.02 1.29-0.18 0.64-0.16 1.22-0.46 0.59-0.29 1.1-0.7 0.51-0.42 0.92-0.93 0.29-0.32 0.39-0.74 0.1-0.42-0.01-0.83-0.12-0.41-0.42-0.72-0.3-0.31-0.71-0.43zm-7.26 11.94q-0.85-0.29-1.75-0.27-0.89 0.03-1.72 0.36-0.84 0.33-1.5 0.93-0.66 0.61-1.08 1.4-0.68 0.88-1.07 1.92-0.4 1.04-0.48 2.15-0.08 1.11 0.16 2.19 0.24 1.09 0.79 2.05 0.1 0.15 0.26 0.23 0.16 0.08 0.34 0.08 0.18 0 0.34-0.08 0.16-0.08 0.27-0.23l0.9-5.44q0.14-0.78 0.52-1.47 0.39-0.69 0.99-1.21 0.61-0.51 1.35-0.8 0.74-0.28 1.53-0.3c0.75 0 0.9-1.21 0.15-1.51zm-11.79 17.08c-3.85 0.73-7.78 0.92-11.68 0.56-3.9-0.35-7.73-1.25-11.39-2.66-3.65-1.4-7.09-3.31-10.22-5.67-3.13-2.35-5.92-5.13-8.28-8.25-0.31-0.45-1.36 0-1.06 0.6q0.85 1.48 1.81 2.88 0.96 1.41 2.02 2.73 1.07 1.33 2.22 2.58 1.16 1.24 2.41 2.4c-1.9 0.11-3.77 0.6-5.49 1.44-1.71 0.84-3.25 2.01-4.51 3.44-1.27 1.43-2.23 3.1-2.85 4.91-0.62 1.81-0.87 3.72-0.75 5.63h0.75c0.5-1.83 1.3-3.55 2.37-5.1 1.08-1.55 2.41-2.91 3.94-4.02 1.53-1.1 3.23-1.94 5.04-2.47 1.81-0.54 3.7-0.76 5.58-0.66 2.17 1.6 4.53 2.9 7.04 3.87 2.5 0.97 5.13 1.6 7.8 1.88 2.67 0.28 5.37 0.2 8.02-0.23 2.66-0.44 5.24-1.23 7.68-2.34q0.17-0.18 0.23-0.42 0.05-0.24-0.02-0.47-0.07-0.24-0.24-0.4-0.18-0.17-0.42-0.23zm-49.59-116.09c-2.11 0.69-4.06 1.8-5.74 3.27-1.67 1.46-3.04 3.25-4.01 5.25-0.97 2-1.54 4.18-1.65 6.4-0.12 2.23 0.21 4.45 0.97 6.54l0.91-0.15c-1.21-7.26-0.3-15.57 8.16-17.54 1.62-0.39 3.31-0.44 4.94-0.13 1.64 0.31 3.19 0.97 4.55 1.93 1.36 0.96 2.5 2.2 3.34 3.64 0.84 1.43 1.37 3.04 1.53 4.69h0.46c3.93-7.86-6.05-15.72-13.46-13.9zm5.75 46.25v-1.51l-0.61-1.51c-0.3-0.6-1.51-0.76-1.51 0.15l-0.3 0.3-2.87 5.14-1.51-1.51q-0.68-0.89-1.26-1.84-0.58-0.95-1.06-1.96-0.47-1.01-0.84-2.07-0.37-1.05-0.62-2.14c-1.52-4.69-1.67-9.68-3.48-14.36h-0.61c-0.45 6.2-0.15 24.49 7.87 27.66q-0.62 2.26-1.16 4.53-0.54 2.27-1.02 4.56-0.47 2.29-0.87 4.59-0.4 2.3-0.73 4.61c-0.61 4.54-2.42 12.85 3.32 14.97 11.94 4.23 9.07-28.72 7.26-39.61zm-6.35 30.69c-1.36-1.51 2.57-14.06 3.02-16.33l1.06-4.08v14.82c0 1.06 0.61 10.88-4.08 5.59zm-10.58-87.53c-13.61-14.06-29.03-26-42.18-40.36-0.6-0.6-1.66 0.15-1.06 0.91q4.13 6.06 8.78 11.74 4.65 5.68 9.79 10.92 5.13 5.25 10.7 10.02 5.58 4.78 11.55 9.04c1.36 0.91 3.48-0.75 2.42-2.27z"/>
		<path class="s0" d="m642.65 313.84q-2.46-4.65-5.58-8.88-3.13-4.23-6.86-7.94-3.73-3.71-7.98-6.82-4.24-3.1-8.9-5.54-5.02-2.8-9.92-5.8-4.9-2.99-9.69-6.17-4.79-3.18-9.45-6.53-4.66-3.36-9.19-6.89c-0.61-0.61-1.51 0.45-0.76 1.05q3.99 3.7 8.06 7.29 4.08 3.6 8.24 7.1 4.16 3.49 8.4 6.89 4.24 3.4 8.56 6.69c11.34 8.62 21.16 19.05 32.5 27.66q0.49 0.25 1.02 0.19 0.54-0.06 0.96-0.4 0.42-0.35 0.58-0.86 0.16-0.52 0.01-1.04z"/>
		<path class="s0" d="m655.05 305.67q-3.16-3.09-6.56-5.91-3.41-2.82-7.04-5.35-3.63-2.52-7.45-4.74-3.83-2.21-7.83-4.1c-10.12-5.75-20.71-10.58-30.98-16.02l-0.31 0.9q3.97 2.34 7.87 4.79 3.89 2.45 7.71 5.03 3.82 2.57 7.56 5.25 3.74 2.69 7.4 5.49 3 2.72 6.14 5.28 3.15 2.56 6.42 4.95 3.28 2.38 6.68 4.59 3.4 2.21 6.91 4.23c0.59 0.15 1.21 0.13 1.78-0.08 0.57-0.2 1.07-0.57 1.43-1.06 0.36-0.49 0.56-1.07 0.58-1.68 0.02-0.6-0.14-1.2-0.31-1.57zm-15.42-48.82q-4.49-2.8-9.2-5.2-4.71-2.4-9.61-4.37-4.91-1.98-9.96-3.52-5.06-1.54-10.23-2.63-4.1-0.22-8.18 0.26-4.08 0.48-8.02 1.63-3.94 1.16-7.62 2.97-3.69 1.8-7.02 4.21l0.3 0.45q4.14-2.32 8.67-3.74 4.53-1.42 9.25-1.87 4.73-0.45 9.45 0.09 4.71 0.54 9.21 2.04 3.9 1.94 7.87 3.71 3.98 1.77 8.03 3.36 4.05 1.59 8.16 3 4.12 1.4 8.29 2.63c0.4 0.05 0.82-0.01 1.16-0.22 0.34-0.2 0.59-0.54 0.69-0.92 0.1-0.39 0.03-0.81-0.17-1.15-0.21-0.34-0.54-0.59-1.07-0.73z"/>
		<path class="s0" d="m707.96 256.54c-46.86 8.62-93.27-39.6-138.47-14.05q1.59-3.03 2.47-6.33 0.87-3.31 0.99-6.72 0.12-3.42-0.53-6.77-0.65-3.36-2.03-6.49c-0.88-1.85-2.14-3.5-3.7-4.83-1.57-1.33-3.4-2.31-5.37-2.88-1.97-0.58-4.04-0.72-6.07-0.43-2.03 0.28-3.98 1-5.72 2.1-0.75 0.45-0.3 1.66 0.46 1.36 9.52-4.84 16.93 6.65 17.38 14.51q-0.2 2.6-0.54 5.18-0.35 2.58-0.84 5.14-0.49 2.55-1.13 5.08-0.64 2.52-1.42 5.01-0.05 0.58 0.25 1.09 0.3 0.51 0.84 0.74 0.54 0.23 1.12 0.1 0.57-0.13 0.96-0.57l2.27-3.48h0.76c46.26-22.68 91.3 29.33 138.32 12.24z"/>
		<path class="s0" d="m730.03 261.23c-10.28-24.49-48.38-13.15-67.42-16.02-0.76 0-0.91 1.05-0.15 1.21q4.63 0.76 9.28 1.38 4.66 0.61 9.33 1.09 4.67 0.47 9.35 0.8 4.68 0.32 9.37 0.51 3.92 0.45 7.72 1.5 3.8 1.05 7.4 2.66 3.6 1.62 6.9 3.76 3.31 2.15 6.25 4.77 0.39 0.18 0.81 0.13 0.42-0.05 0.76-0.31 0.33-0.26 0.48-0.66c0.1-0.26 0.12-0.55-0.08-0.82zm-19.05-22.67c-3.71-3.86-7.81-7.31-12.24-10.3-4.44-2.99-9.18-5.5-14.14-7.49-4.97-1.98-10.13-3.44-15.4-4.34-5.27-0.9-10.62-1.23-15.97-1-4.02-4.27-8.6-7.98-13.62-11.02-5.01-3.04-10.42-5.38-16.06-6.98-5.65-1.59-11.48-2.4-17.35-2.43-5.86-0.02-11.7 0.74-17.36 2.29q-0.15 0.08-0.23 0.22-0.09 0.14-0.09 0.3 0 0.17 0.09 0.31 0.08 0.14 0.23 0.22 3.73-0.28 7.46-0.19 3.74 0.09 7.45 0.55 3.72 0.45 7.37 1.27 3.64 0.83 7.19 2-3.05 0.73-5.98 1.87-2.92 1.14-5.67 2.67-2.74 1.54-5.24 3.43-2.5 1.9-4.72 4.13l0.45 0.6q2.03-1.41 4.21-2.58 2.17-1.18 4.46-2.11 2.28-0.94 4.66-1.62 2.38-0.68 4.81-1.1c4.99-0.6 10.13 0 15.12-0.45q1.67 0.96 3.33 1.95 1.65 1 3.27 2.04 1.63 1.04 3.23 2.12 1.6 1.08 3.17 2.2-8.7-0.01-17.36 0.88-8.66 0.89-17.17 2.68-8.52 1.79-16.8 4.46-8.29 2.67-16.24 6.19l0.45 0.76q8.64-3.01 17.53-5.13 8.89-2.13 17.96-3.34 9.06-1.22 18.2-1.52 9.14-0.3 18.27 0.31 4.21 0.24 8.41 0.7 4.2 0.47 8.37 1.17 4.17 0.7 8.29 1.63 4.12 0.94 8.18 2.1 3.65 1.34 7.2 2.94 3.54 1.6 6.95 3.46 3.42 1.86 6.69 3.97 3.27 2.1 6.37 4.44c0.35 0.22 0.74 0.38 1.14 0.38 0.4 0 0.78-0.16 1.07-0.44 0.28-0.29 0.44-0.67 0.44-1.07 0-0.4-0.16-0.79-0.38-1.13zm-161.15-20.87c-0.61-0.3-1.31-0.39-1.97-0.21-0.65 0.19-1.21 0.62-1.55 1.21-0.33 0.6-0.42 1.3-0.24 1.96 0.18 0.65 0.62 1.21 1.21 1.55q1.17 0.74 2.3 1.55 1.13 0.81 2.18 1.72 1.04 0.92 2 1.92 0.96 1.01 1.82 2.1 1.03 1.67 1.68 3.53 0.65 1.87 0.89 3.82 0.23 1.96 0.04 3.92-0.19 1.97-0.8 3.84c-0.11 0.3-0.1 0.64 0.02 0.93 0.13 0.3 0.37 0.53 0.67 0.65 0.29 0.12 0.63 0.11 0.92-0.01 0.3-0.13 0.53-0.37 0.65-0.67 1.25-2.45 1.99-5.14 2.16-7.89 0.18-2.75-0.2-5.51-1.12-8.11-0.92-2.6-2.35-4.98-4.22-7.01-1.86-2.03-4.12-3.66-6.64-4.8z"/>
		<path class="s0" d="m580.67 201.97c-0.95-0.88-2.08-1.54-3.32-1.95-1.23-0.4-2.53-0.53-3.82-0.39-1.29 0.14-2.54 0.56-3.65 1.23-1.12 0.66-2.07 1.56-2.81 2.62l0.45 0.46c3.78-4.54 9.52-1.21 11.49 3.02q0.47 1.48 0.74 3.01 0.27 1.53 0.33 3.08 0.06 1.55-0.1 3.1-0.15 1.55-0.52 3.06 0.02 0.69 0.41 1.26 0.4 0.57 1.05 0.82 0.65 0.25 1.32 0.09 0.68-0.16 1.15-0.66c0.87-1.48 1.48-3.09 1.82-4.76 0.33-1.68 0.37-3.4 0.12-5.09-0.24-1.7-0.77-3.33-1.57-4.85-0.79-1.51-1.84-2.88-3.09-4.05zm-36.88 22.53c-6.96-1.82-15.72 2.72-14.67 10.73q0.11 0.2 0.3 0.33 0.19 0.13 0.42 0.15 0.23 0.03 0.44-0.06 0.21-0.09 0.36-0.27c0.52-1.3 1.37-2.45 2.46-3.35 1.08-0.89 2.37-1.5 3.75-1.77 1.38-0.27 2.81-0.19 4.15 0.23 1.34 0.41 2.56 1.16 3.54 2.17 3.18 3.02 2.72 8.31 6.2 10.88q0.22 0.25 0.51 0.38 0.3 0.13 0.62 0.14 0.33-0.01 0.63-0.14 0.29-0.13 0.51-0.38c6.8-6.04-3.02-17.23-9.22-19.04zm61.37 86.47q-1.23-2.22-2.61-4.34-1.38-2.13-2.89-4.16-1.52-2.03-3.17-3.95-1.65-1.92-3.42-3.73c-4.54-5.74-9.83-11.19-14.06-17.08l-0.76 0.45q1.02 2.66 2.13 5.27 1.11 2.62 2.32 5.19 1.22 2.58 2.52 5.1 1.31 2.53 2.71 5 1.25 2.34 2.76 4.52 1.51 2.17 3.27 4.16 1.76 1.98 3.73 3.75 1.98 1.77 4.15 3.29c2.11 1.06 4.23-1.51 3.32-3.47zm78.76 206.65q-4.6-2.47-9.25-4.83-4.65-2.35-9.36-4.6-4.71-2.25-9.47-4.39-4.75-2.14-9.56-4.17l-0.3 0.6q12.55 8.31 25.24 16.33c9.07 5.44 20.41 9.97 19.96 22.52-0.04 0.47 0.09 0.94 0.36 1.32 0.28 0.38 0.68 0.65 1.14 0.76 0.45 0.11 0.94 0.05 1.35-0.16 0.42-0.22 0.75-0.58 0.93-1.01 4.38-9.53-3.33-17.69-11.04-22.37zm61.53 239.9c-7.41 4.54-14.06 9.98-21.62 14.36q-3.15 1.85-6.38 3.54-3.24 1.69-6.55 3.22-3.31 1.54-6.7 2.91-3.38 1.37-6.82 2.58-6.52 2.22-13.18 3.95-6.67 1.72-13.44 2.94-6.78 1.21-13.62 1.91-6.85 0.7-13.73 0.87c-0.91 0-0.91 1.51 0 1.51q7.05 0.62 14.13 0.49 7.08-0.12 14.11-0.98 7.03-0.85 13.94-2.44 6.9-1.58 13.6-3.87l7.26-2.57q0.49 2.78 1.16 5.51 0.66 2.74 1.49 5.43 0.84 2.69 1.84 5.33 1 2.63 2.16 5.2 4.38 12.09 8.31 24.19c5.29 17.08 9.07 34.31 13.3 51.54 0.11 0.56 0.4 1.06 0.85 1.39 0.45 0.34 1.01 0.49 1.57 0.41 0.56-0.08 1.06-0.38 1.39-0.83 0.34-0.45 0.49-1.01 0.41-1.57q-0.43-6.69-1.3-13.33-0.87-6.65-2.16-13.22-1.29-6.58-2.99-13.06-1.7-6.49-3.81-12.85-1.26-6.11-3.23-12.04-1.97-5.92-4.63-11.57-2.65-5.66-5.95-10.96-3.3-5.3-7.2-10.17 5.62-2.06 10.97-4.73 5.35-2.68 10.37-5.94 5.02-3.26 9.64-7.07 4.61-3.81 8.77-8.11c0.91-1.36-0.75-2.57-1.96-1.97zm0.6-26.15l-2.57-2.57q0.17-0.36 0.19-0.76 0.02-0.4-0.11-0.78-0.13-0.38-0.38-0.68-0.26-0.31-0.6-0.5-4.46-2.25-8.79-4.72-4.34-2.47-8.54-5.16-4.2-2.69-8.26-5.59-4.07-2.9-7.97-6l-0.61 0.76q3 2.97 6.17 5.76 3.16 2.79 6.48 5.41 3.31 2.61 6.77 5.04 3.45 2.42 7.04 4.65-1.95 0.22-3.88 0.49-1.94 0.27-3.87 0.6-1.93 0.32-3.84 0.69-1.92 0.37-3.83 0.79-5.45 0.83-10.94 1.22-5.49 0.39-11 0.33-5.51-0.06-10.99-0.56-5.49-0.5-10.91-1.44-0.38-0.06-0.71 0.09-0.33 0.17-0.46 0.53-0.11 0.35 0.05 0.69 0.18 0.33 0.53 0.45 3.69 1.26 7.48 2.13 3.8 0.88 7.66 1.43 3.86 0.55 7.75 0.77 3.89 0.22 7.78 0.1 2.17-0.14 4.33-0.34 2.16-0.2 4.32-0.47 2.15-0.26 4.3-0.59 2.15-0.32 4.28-0.71 2.55-1.06 5.27-1.55 2.72-0.49 5.47-0.39 2.76 0.1 5.44 0.78 2.67 0.68 5.14 1.91 0.39 0.19 0.82 0.12 0.42-0.08 0.73-0.38 0.3-0.31 0.38-0.73 0.07-0.43-0.12-0.82zm1.97 4.99h-0.76q-0.27 1.97-0.49 3.95-0.23 1.98-0.4 3.97-0.17 1.98-0.29 3.97-0.11 1.99-0.18 3.98c0 1.21 1.82 1.06 1.97 0q0.1-1.98 0.15-3.97 0.06-1.98 0.06-3.97 0-1.98-0.06-3.97c-0.03-1.32-0.08-2.64 0-3.96zm-19.35-139.83q-1.82-2.23-3.73-4.38-1.91-2.16-3.89-4.24-1.99-2.08-4.05-4.09-2.07-2-4.2-3.92-2.19-2.31-4.24-4.75-2.04-2.44-3.94-5-1.89-2.56-3.63-5.23-1.74-2.66-3.31-5.43c-0.46-0.91-1.97-0.3-1.51 0.75q1.34 2.97 2.8 5.87 1.47 2.91 3.06 5.75 1.59 2.83 3.3 5.6 1.71 2.77 3.53 5.46l4.09 5.44q-2.65 1.49-5.21 3.13-2.57 1.63-5.03 3.41-2.46 1.78-4.82 3.7-2.35 1.92-4.6 3.97 0.59-7.29 0.99-14.6 0.4-7.31 0.63-14.63 0.23-7.31 0.28-14.63 0.05-7.32-0.08-14.64c0-1.21-2.12-1.21-2.12 0-3.02 31.75-5.14 63.19-9.52 94.63q-3.18 23.13-7.41 46.26l-4.53 23.58q-0.76 2.62-1.36 5.28-0.59 2.66-1.03 5.35-0.43 2.69-0.71 5.4-0.27 2.72-0.38 5.44c0.15 2.72 3.78 2.57 4.84 0.6q1.08-2.52 1.97-5.12 0.89-2.6 1.59-5.25 0.71-2.66 1.21-5.36 0.51-2.7 0.82-5.43 2.42-11.79 4.53-23.73 4.09-23.89 6.81-47.77 1.81-15.12 3.02-30.39 6.05-3.02 11.64-6.5 1.69-0.86 3.36-1.76 1.67-0.91 3.31-1.85 1.65-0.95 3.27-1.93 1.62-0.99 3.21-2.02 0.93 0.98 1.94 1.87 1 0.89 2.09 1.69 1.08 0.8 2.23 1.5 1.15 0.7 2.36 1.29c2.12 0.76 3.48-1.66 2.42-3.32z"/>
		<path class="s0" d="m727.76 604.39h-1.06q-0.9 3.57-1.98 7.09-1.08 3.52-2.33 6.98-1.25 3.47-2.67 6.87-1.41 3.39-2.99 6.72c-4.99 8.32-12.85 13.45-18.3 21.16-0.9 1.37 0 3.93 1.97 3.33q0.75-0.16 1.48-0.39 0.73-0.23 1.44-0.53 0.7-0.31 1.37-0.68 0.67-0.38 1.3-0.82-1.34 3.28-2.48 6.63-1.15 3.35-2.09 6.76-0.95 3.41-1.7 6.87-0.74 3.45-1.29 6.95-0.97 5.3-1.41 10.68-0.43 5.37-0.32 10.76 0.12 5.39 0.78 10.74 0.66 5.35 1.86 10.6 0.08 0.43 0.42 0.7c0.23 0.17 0.51 0.24 0.79 0.2 0.28-0.04 0.53-0.19 0.7-0.41 0.16-0.23 0.24-0.51 0.2-0.79q-0.17-5.26-0.08-10.51 0.1-5.26 0.48-10.51 0.38-5.24 1.04-10.46 0.65-5.22 1.59-10.39c2.27-12.7 8.01-24.19 10.89-36.28q0.9-1.29 1.78-2.6 0.88-1.3 1.73-2.62 0.85-1.33 1.67-2.67 0.82-1.34 1.62-2.7 2.12-3.39 3.56-7.13 1.45-3.74 2.16-7.68 0.72-3.94 0.69-7.94-0.04-4.01-0.82-7.93zm-197.12-362.51c-21.02-3.17-32.35 16.18-40.37 32.2l-35.22 71.05q-35.07 71.35-70.44 142.1c-13.61 26.91-26.46 54.12-40.06 80.88l0.6 0.3q42.93-83.9 86.47-167.5l43.08-82.99 21.47-41.42c6.95-13.3 16.02-30.84 33.71-28.72 0.64-0.11 1.23-0.41 1.69-0.88 0.45-0.47 0.74-1.07 0.83-1.71 0.08-0.65-0.04-1.3-0.36-1.87-0.32-0.57-0.81-1.02-1.4-1.44zm14.96 29.18q-6.05 46.71-11.19 93.42l-4.83 46.86q-0.79 5.5-1.37 11.03-0.58 5.52-0.96 11.06-0.38 5.55-0.55 11.1-0.18 5.55-0.15 11.11c0 1.36 2.42 1.66 2.72 0.3q1.1-5.42 2-10.88 0.9-5.45 1.6-10.94 0.7-5.49 1.2-10.99 0.5-5.51 0.8-11.03l4.53-46.86q3.78-47.17 7.11-94.03 0-0.19-0.13-0.32-0.14-0.13-0.33-0.14-0.18 0.01-0.32 0.14c-0.08 0.08-0.13 0.2-0.13 0.17zm61.98 186.54q-4.63-0.74-9.32-0.99-4.68-0.26-9.37-0.03-4.68 0.23-9.32 0.94-4.64 0.71-9.18 1.89c-14.96 2.12-29.78 5.14-44.89 7.26l0.15 0.76c14.06-1.52 28.11-2.27 42.32-3.78q5.13-1.21 10.36-1.82 5.24-0.61 10.51-0.61 5.26 0 10.5 0.61 5.23 0.61 10.36 1.82c3.12 1.08 5.89 2.99 8.01 5.53 2.11 2.54 3.5 5.61 3.99 8.88 0.5 3.27 0.1 6.61-1.17 9.66-1.26 3.06-3.33 5.71-6 7.67q-4.02 2.62-8.39 4.63-4.36 2.01-8.97 3.37-4.6 1.37-9.36 2.05-4.75 0.69-9.56 0.69c-25.69 3.32-51.85 5.59-77.4 9.67q-2.72-0.01-5.33 0.77-2.61 0.78-4.87 2.3-2.27 1.52-3.99 3.63-1.71 2.11-2.74 4.64-0.34 1.24-0.42 2.52-0.07 1.28 0.12 2.55 0.2 1.27 0.66 2.48 0.46 1.2 1.16 2.27l3.32 3.94 4.54 4.23q5.29 4.68-1.82 9.82-0.38 0.08-0.64 0.36-0.26 0.29-0.32 0.67-0.05 0.38 0.13 0.73 0.19 0.34 0.53 0.51c1.1 0.24 2.23 0.22 3.32-0.06 1.09-0.28 2.09-0.8 2.94-1.54 0.85-0.73 1.52-1.65 1.96-2.68 0.43-1.04 0.62-2.16 0.55-3.28q-0.18-1.12-0.52-2.2-0.34-1.08-0.84-2.1-0.5-1.02-1.15-1.95-0.64-0.93-1.42-1.76-0.74-0.66-1.46-1.34-0.71-0.69-1.39-1.41-0.68-0.72-1.33-1.47-0.65-0.75-1.26-1.52c-3.94-7.11 0-11.49 6.5-13.61q4.56-0.94 9.15-1.75 4.59-0.8 9.21-1.46 4.61-0.66 9.24-1.18 4.64-0.52 9.28-0.9l37.49-5.14c17.99-2.42 42.63-2.57 52.91-20.41 1.76-3.25 2.72-6.89 2.79-10.59 0.06-3.7-0.76-7.37-2.41-10.69-1.64-3.31-4.06-6.19-7.04-8.38-2.99-2.19-6.46-3.63-10.12-4.2zm-149.35 106.27q-15.52 0.23-31.01 1.26-15.48 1.02-30.89 2.84-15.42 1.82-30.71 4.42-15.3 2.61-30.45 6-0.57 0.09-1.08 0.35-0.51 0.26-0.92 0.66-0.41 0.41-0.67 0.93-0.26 0.51-0.35 1.08c-0.26 1.99-0.18 4.01 0.22 5.97 0.4 1.96 1.13 3.85 2.15 5.58 1.02 1.72 2.32 3.27 3.84 4.57 1.53 1.3 3.26 2.34 5.13 3.08q4.43 1.14 8.95 1.82 4.53 0.69 9.1 0.92 4.57 0.23 9.14 0 4.56-0.24 9.09-0.93 2.51 0.12 5.01 0.32 2.51 0.2 5 0.48 2.5 0.29 4.98 0.65 2.49 0.37 4.96 0.82c3.03 0.45 13.31 0.91 9.37 7.86-1.05 1.97-6.5 2.27-8.61 2.72-14.21 3.02-28.72 5.14-43.09 7.86-7.55 1.51-17.38 5.29-16.78 14.51 0.61 9.38 11.49 11.49 18.75 13.61q8.97 2.74 18.21 4.35 9.23 1.62 18.6 2.08 9.37 0.45 18.72-0.25 9.35-0.7 18.54-2.55 0.29-0.16 0.44-0.46 0.15-0.3 0.1-0.63-0.05-0.33-0.28-0.57-0.23-0.24-0.56-0.31-9.2 1.33-18.49 1.58-9.29 0.26-18.55-0.56-9.25-0.82-18.35-2.71-9.1-1.88-17.93-4.81c-4.68-1.66-16.93-5.59-11.33-12.7 4.08-5.14 14.05-5.59 19.95-6.95 12.09-2.72 24.49-4.54 36.58-7.71 4.84-1.21 11.04-3.78 10.74-9.83-0.15-6.04-6.96-8.16-11.79-9.52q-3.94-1.01-7.94-1.75-4-0.75-8.04-1.22-4.04-0.48-8.1-0.68-4.06-0.2-8.12-0.13c-9.68 0-32.81 3.33-32.81-11.34q14.75-3.45 29.6-6.4 14.85-2.96 29.79-5.42 14.94-2.46 29.95-4.41 15.01-1.96 30.09-3.42c0.6 0 0.45-1.06-0.15-1.06zm45.95-247.46c-29.63 69.84-60.47 139.07-87.53 209.67-0.08 0.35-0.04 0.71 0.11 1.03 0.16 0.32 0.42 0.57 0.75 0.72 0.32 0.14 0.69 0.17 1.03 0.07 0.34-0.1 0.64-0.32 0.83-0.61 30.54-69.24 57.45-140.13 84.81-210.88zm23.89-25.4c-7.87 38.1-14.67 76.49-23.28 114.44q-6.5 27.81-13.16 55.48l-6.8 28.27q-1.15 3.3-2.07 6.68-0.93 3.38-1.63 6.81-0.7 3.43-1.18 6.9-0.47 3.47-0.71 6.97 0.08 0.41 0.36 0.72 0.29 0.31 0.69 0.43 0.41 0.12 0.82 0.01 0.4-0.11 0.7-0.41 1.24-2.74 2.3-5.56 1.07-2.81 1.94-5.7 0.87-2.88 1.55-5.81 0.68-2.93 1.16-5.91l6.8-28.42q6.66-29.17 12.4-58.5c7.71-38.7 15.42-77.25 20.11-116.4zm103.85 178.53c-9.07-36.28-22.68-71.35-35.07-106.42q-9.07-26.3-18.75-52.61c-6.65-18.29-14.36-36.28-21.01-54.57l-0.6 0.3c5.89 17.69 10.58 35.68 16.32 53.52l18.14 54.42c12.1 35.37 23.13 71.8 38.4 106.12 0.6 1.21 3.02 0.75 2.57-0.76zm-65.31-110.96q-0.93-6.85-1.73-13.71-0.81-6.87-1.49-13.75-0.68-6.88-1.24-13.77-0.55-6.89-0.98-13.79h-0.75q0.9 28.57 3.78 56.84 0.39 6.78 1.09 13.54 0.7 6.75 1.7 13.47 1.01 6.72 2.31 13.39 1.31 6.66 2.91 13.26c0.45 1.67 3.02 0.76 3.02-0.9-1.51-18.14-6.2-36.44-8.62-54.58z"/>
		<path class="s0" d="m434.34 571.89q-2.54 5.02-4.8 10.17-2.27 5.15-4.25 10.42-1.99 5.26-3.7 10.62-1.7 5.36-3.12 10.81l0.45 0.15q2.72-4.93 5.17-9.99 2.45-5.07 4.63-10.26 2.17-5.18 4.07-10.48 1.9-5.3 3.52-10.69c0.3-1.06-1.52-1.81-1.97-0.75zm70.29-195.32c-21.61 59.56-44.29 118.67-63.49 178.99l0.46 0.3c23.43-58.96 43.23-119.12 64.24-178.83 0.31-0.76-0.9-1.21-1.21-0.46zm-42.02 286.92c-0.63-1.87-1.68-3.58-3.07-4.99-1.39-1.4-3.08-2.48-4.94-3.13-1.87-0.66-3.86-0.88-5.83-0.65-1.96 0.23-3.85 0.9-5.51 1.97-0.91 0.61 0 1.82 0.76 1.51 9.07-4.08 16.32 4.84 14.96 13.61q-0.53 2.09-1.44 4.04-0.91 1.96-2.17 3.7-1.26 1.75-2.83 3.23-1.57 1.48-3.39 2.63-3.56 2.17-7.3 4.01-3.75 1.83-7.65 3.32-3.9 1.48-7.91 2.6-4.02 1.12-8.13 1.86-6.44 0.79-12.68 2.55-6.25 1.77-12.15 4.46-5.91 2.69-11.33 6.25-5.42 3.56-10.24 7.91c-1.21 1.36 0.75 3.17 1.96 2.12q4.75-3.33 9.83-6.11 5.09-2.78 10.45-5 5.35-2.21 10.92-3.82 5.57-1.61 11.28-2.61 3.49-0.75 6.95-1.67 3.45-0.92 6.86-2 3.41-1.07 6.76-2.31 3.35-1.24 6.64-2.64-1.87 4.05-3.34 8.27-1.47 4.22-2.52 8.56-1.04 4.34-1.66 8.76-0.62 4.42-0.79 8.88h0.75q1.13-4.5 2.39-8.97 1.26-4.46 2.66-8.89 1.4-4.42 2.94-8.8 1.53-4.38 3.2-8.71v-0.76l6.05-4.08c2.01-1.31 3.8-2.92 5.31-4.79 1.51-1.86 2.71-3.96 3.56-6.2 0.85-2.24 1.34-4.6 1.45-7 0.11-2.4-0.16-4.79-0.8-7.11z"/>
		<path class="s0" d="m460.64 726.68q-5.15 2.66-10.5 4.92-5.35 2.26-10.85 4.1-5.51 1.84-11.14 3.26-5.62 1.41-11.35 2.39-2.96 0.48-5.93 0.84-2.98 0.37-5.97 0.61-2.99 0.25-5.98 0.38-3 0.12-6 0.13-1.18 0.03-2.36 0-1.17-0.04-2.35-0.13-1.17-0.1-2.34-0.25-1.17-0.16-2.32-0.37c-5.29-1.06-14.21-6.81-8.47-13.61l-0.75-0.76c-1.15 0.87-2.09 1.98-2.77 3.25-0.68 1.27-1.08 2.67-1.16 4.1-0.09 1.44 0.14 2.88 0.66 4.22 0.52 1.34 1.33 2.55 2.36 3.55q2.03 1.69 4.36 2.93 2.33 1.24 4.87 1.99 2.53 0.74 5.17 0.95 2.63 0.21 5.25-0.12l-0.45 1.05q-4.54 23.28-8.47 46.56c-2.42 15.58-4.08 31.3-6.95 46.72h0.6c3.03-15.42 7.26-30.69 10.58-46.26q4.84-23.13 9.07-46.41 0.1-0.21 0.12-0.43 0.03-0.23-0.01-0.45-0.04-0.22-0.15-0.42-0.1-0.2-0.26-0.36h0.61q4.12-0.07 8.23-0.42 4.11-0.34 8.19-0.97 4.08-0.62 8.1-1.53 4.02-0.9 7.98-2.07-2.03 5.64-3.82 11.37-1.8 5.72-3.37 11.51-1.57 5.79-2.91 11.63-1.34 5.85-2.45 11.75l0.91 0.15q2.39-5.87 4.62-11.81 2.23-5.93 4.29-11.92 2.06-6 3.95-12.05 1.89-6.04 3.62-12.14 3.59-1.21 7.09-2.65 3.51-1.43 6.92-3.08 3.42-1.65 6.72-3.5 3.3-1.86 6.48-3.93c1.36-0.9 0-3.47-1.67-2.72zm157.67-193.49q-0.74-3.17-1.35-6.36-0.62-3.2-1.09-6.41-0.47-3.22-0.81-6.45-0.33-3.24-0.53-6.48l-0.75 0.15q0.24 2.98 0.35 5.96 0.12 2.99 0.12 5.98 0 2.99-0.12 5.98-0.11 2.98-0.35 5.96-11.98 2.02-23.77 4.9-11.8 2.89-23.35 6.63-11.56 3.73-22.81 8.3-11.25 4.57-22.13 9.95c-7.26 3.78-16.63 13.61-8.32 21.47q1.66 1.01 3.43 1.79 1.77 0.79 3.62 1.34 1.86 0.56 3.77 0.87 1.91 0.32 3.85 0.38 13.6 2.12 27.36 3.03 3.17 13.9 6.2 27.51h0.75q-1.96-13.61-3.93-27.51 0.31-0.25 0.47-0.61 0.15-0.37 0.1-0.76-0.04-0.4-0.28-0.72-0.23-0.32-0.59-0.48-0.36-2.43-0.79-4.85-0.43-2.42-0.94-4.82-0.51-2.4-1.1-4.78-0.59-2.39-1.25-4.75c-0.31-1.06-1.97-0.46-1.97 0.6q0.19 2.25 0.44 4.49 0.26 2.24 0.58 4.47 0.32 2.23 0.71 4.45 0.39 2.22 0.84 4.43l-15.27-3.02q-2.23-0.04-4.46-0.21-2.24-0.17-4.45-0.48-2.22-0.3-4.41-0.73-2.2-0.44-4.36-1c-11.34-5.9-5.14-11.34-0.46-14.51q1.04-0.57 2.09-1.11 1.05-0.55 2.11-1.08 1.06-0.53 2.13-1.04 1.06-0.51 2.14-1.01 8.31-4.08 17.08-7.25 8.57-2.87 17.2-5.54 8.64-2.66 17.33-5.12 8.7-2.46 17.45-4.71 8.76-2.25 17.56-4.28c1.21-0.31 2.42-1.21 1.96-2.57z"/>
		<path class="s0" d="m581.88 546.19l-0.9 0.3q0.64 6.97 1.51 13.92 0.86 6.95 1.94 13.88 1.08 6.92 2.37 13.8 1.29 6.89 2.79 13.73c0.05 0.31 0.22 0.6 0.47 0.8 0.25 0.2 0.57 0.29 0.89 0.25 0.32-0.04 0.61-0.21 0.81-0.46 0.19-0.26 0.28-0.58 0.24-0.89q-0.82-6.97-1.88-13.91-1.05-6.94-2.32-13.84-1.27-6.9-2.75-13.76c-0.98-4.58-2.04-9.13-3.17-13.82zm-84.96 33.56q-2.26 9.4-4.17 18.89-1.91 9.49-3.46 19.04-1.55 9.56-2.74 19.16-1.19 9.6-2.02 19.25c0 1.51 2.42 2.42 2.87 0.75q2.03-9.5 3.7-19.07 1.67-9.57 2.97-19.2 1.31-9.63 2.25-19.3c0.62-6.45 1.13-12.91 0.6-19.52zm17.84-51.25q-0.89 3.71-1.59 7.47-0.7 3.76-1.21 7.54-0.51 3.79-0.83 7.6-0.32 3.8-0.45 7.62c-0.03 0.32 0.06 0.64 0.26 0.9 0.19 0.25 0.48 0.41 0.8 0.45 0.32 0.04 0.64-0.04 0.89-0.24 0.26-0.2 0.42-0.49 0.46-0.81q0.7-3.75 1.19-7.54 0.49-3.78 0.8-7.59 0.3-3.8 0.41-7.62c0.07-2.54 0.08-5.09-0.73-7.78zm-33.56 266.51q-4.72-0.46-9.45-0.08-4.73 0.38-9.32 1.6-4.59 1.22-8.89 3.24-4.29 2.02-8.16 4.77l0.3 0.75q3.6-1.72 7.39-2.96 3.8-1.24 7.72-1.97 3.93-0.72 7.91-0.93 3.99-0.2 7.97 0.12c3.93 0.45 12.54 2.42 12.7 8.31 0.3 7.56-6.81 11.19-12.25 13.91-18.29 9.07-36.88 17.84-54.57 28.12-1.21 0.6-0.61 2.72 0.91 2.11q22.52-9.22 44.59-19.65c9.07-4.23 23.58-8.16 26.46-19.8 0.41-2.03 0.39-4.13-0.07-6.15-0.45-2.02-1.33-3.92-2.57-5.57-1.25-1.66-2.82-3.03-4.64-4.04q-2.71-1.51-6.03-1.78z"/>
		<path class="s0" d="m636.15 793.05c-27.21-30.24-16.63-72.72-13.6-109.15q1.34-13.85 1.33-27.77 0-13.92-1.35-27.78-1.36-13.85-4.04-27.51-2.68-13.66-6.68-26.99c-0.45-1.21-2.26-0.6-2.11 0.6q2.72 23.29 4.68 46.41-3.51 0.74-7.05 1.35-3.53 0.61-7.09 1.1-3.56 0.49-7.13 0.86-3.57 0.37-7.15 0.62 1.11-1.3 1.98-2.78 0.87-1.47 1.47-3.08 0.6-1.6 0.91-3.29 0.31-1.68 0.33-3.39c0-9.53-9.83-18.14-18.14-12.55-0.76 0.45 0 1.97 0.76 1.81 1.34-0.38 2.76-0.46 4.14-0.23 1.39 0.22 2.7 0.75 3.86 1.55 1.15 0.79 2.12 1.83 2.83 3.04 0.7 1.21 1.13 2.56 1.26 3.96q0.16 1.97-0.18 3.91-0.35 1.95-1.19 3.74-0.83 1.78-2.1 3.3-1.27 1.51-2.88 2.65l-2.27 1.67q-8.16 0.15-16.63-0.15-3.34-0.22-6.67-0.5-3.33-0.29-6.66-0.65-3.33-0.36-6.65-0.79-3.31-0.43-6.62-0.94-3.84-0.29-7.65-0.78-3.82-0.49-7.61-1.17-3.78-0.68-7.53-1.55-3.75-0.88-7.45-1.94c-0.6-0.3-1.05 0.76-0.3 1.06 9.07 3.17 17.54 7.26 27.06 9.67q3.27 0.83 6.57 1.51 3.31 0.67 6.64 1.2 3.33 0.53 6.68 0.92 3.35 0.38 6.72 0.61l-4.54 1.06q-4.99 1.28-9.89 2.84-4.91 1.56-9.72 3.4-4.81 1.83-9.51 3.94-4.7 2.11-9.28 4.48-1.13-3.35-2.33-6.67-1.21-3.31-2.5-6.6-1.28-3.29-2.65-6.55-1.36-3.26-2.8-6.48l-0.9 0.3q0.78 3.52 1.68 7.01 0.91 3.5 1.93 6.96 1.02 3.46 2.16 6.88 1.14 3.43 2.39 6.81l-0.6 0.3c-8.77 4.99-19.2 12.85-17.69 24.8 0.49 2.23 1.29 4.39 2.38 6.4 1.09 2.01 2.47 3.86 4.08 5.48 1.61 1.63 3.45 3.01 5.45 4.12 2 1.11 4.15 1.93 6.38 2.44 15.72 4.38 34.32-6.5 48.38 4.99 17.08 13.9-6.2 28.72-17.24 34.31l-4.68 2.27q0.51-1.39 0.88-2.83 0.37-1.43 0.6-2.9 0.22-1.47 0.31-2.95 0.08-1.48 0.02-2.96-0.03-3.18-0.69-6.3-0.66-3.11-1.93-6.03-1.26-2.92-3.08-5.54-1.82-2.61-4.13-4.81l-0.9 0.46q0.85 1.3 1.57 2.68 0.72 1.38 1.29 2.83 0.57 1.45 0.99 2.94 0.42 1.5 0.68 3.04l-1.51-1.21c-6.35-3.93-18.29 0-24.94 1.21q-3.94 0.82-7.82 1.84-3.89 1.03-7.71 2.26-3.83 1.23-7.58 2.66-3.76 1.43-7.43 3.06-0.15 0.13-0.19 0.32-0.04 0.2 0.03 0.38 0.08 0.18 0.25 0.28 0.17 0.1 0.36 0.08 5.03-1.41 10.09-2.64 5.07-1.24 10.18-2.3 5.1-1.05 10.24-1.94 5.14-0.88 10.31-1.58c1.81-0.31 8.47-1.97 9.98-0.61l1.36 4.54-3.78 2.72q-2.13 1.31-4.3 2.56-2.18 1.24-4.39 2.42-2.21 1.17-4.46 2.27-2.25 1.1-4.54 2.12-0.34 0.28-0.46 0.7-0.11 0.42 0.04 0.84 0.16 0.41 0.52 0.65 0.37 0.24 0.81 0.23 3.58-1.03 7.02-2.44 3.44-1.42 6.7-3.22 3.26-1.79 6.3-3.93 3.05-2.15 5.83-4.62v4.23q-0.18 2-0.54 3.98-0.36 1.98-0.89 3.92-0.53 1.94-1.24 3.82-0.7 1.89-1.56 3.7-42.63 21.16-85.41 42.03c-9.98 4.83-27.67 12.24-23.59 27.51 0.25 2 1.14 3.88 2.52 5.35 1.39 1.47 3.2 2.46 5.19 2.83 1.98 0.37 4.03 0.1 5.86-0.78 1.82-0.87 3.31-2.3 4.27-4.08 0.61-1.36-1.36-2.87-2.42-1.81-6.5 6.35-13.15-3.17-10.13-10.13q0.92-1.72 2.13-3.27 1.2-1.54 2.65-2.85 1.45-1.32 3.1-2.36 1.65-1.05 3.46-1.8 11.34-5.74 22.68-11.18l38.24-18.6q-0.67 4.56-1.06 9.15-0.4 4.59-0.51 9.19-0.11 4.61 0.05 9.21 0.17 4.6 0.62 9.19c0 0.75 1.05 0.75 1.21 0q0.9-4.7 1.5-9.45 0.61-4.75 0.91-9.52 0.3-4.78 0.31-9.57 0-4.78-0.31-9.56l8.02-3.93q14.21-6.5 28.57-13.15-5.31 7.32-10.26 14.9-4.95 7.57-9.53 15.36-4.58 7.8-8.78 15.81-4.2 8.01-8.02 16.21-2.07 4.3-4.09 8.62-2.02 4.32-3.99 8.67-1.96 4.34-3.87 8.71-1.91 4.38-3.77 8.77-1.94 4.02-3.65 8.16-1.71 4.13-3.17 8.35-1.45 4.23-2.66 8.53-1.21 4.3-2.16 8.67c-0.3 2.27 3.03 3.78 4.39 1.82q2.07-3.97 4.02-8 1.96-4.03 3.79-8.11 1.84-4.09 3.55-8.22 1.71-4.14 3.3-8.33 7.1-16.78 14.81-33.41c10.43-22.52 21.92-44.44 31.75-67.12v-0.3q1.82-0.85 3.63-1.74 1.8-0.9 3.58-1.85 1.77-0.94 3.52-1.94 1.76-0.99 3.48-2.03 3.38-1.54 6.25-3.88 2.88-2.35 5.06-5.34 2.19-3 3.54-6.46 1.35-3.46 1.78-7.14c-0.22-2.4-0.82-4.74-1.77-6.94-0.96-2.21-2.26-4.25-3.85-6.04-1.59-1.8-3.46-3.33-5.54-4.54-2.08-1.21-4.33-2.09-6.68-2.59-14.51-4.08-30.23 4.23-44.14-2.27-2.04-0.72-3.9-1.89-5.44-3.41-1.54-1.53-2.72-3.38-3.46-5.42-0.73-2.04-1.01-4.22-0.8-6.37 0.2-2.16 0.88-4.25 1.99-6.11q1.92-2.38 4.15-4.48 2.23-2.1 4.72-3.88 2.49-1.78 5.2-3.22 2.71-1.43 5.58-2.48 5.25-2.44 10.62-4.61 5.37-2.17 10.84-4.06 5.47-1.9 11.03-3.51 5.56-1.61 11.2-2.94-0.33 3.9-0.33 7.81 0.01 3.91 0.35 7.81 0.34 3.89 1.02 7.74 0.68 3.85 1.68 7.63 2.42 16.63 4.99 33.26h0.6q-0.75-16.78-1.81-33.71 0.24-3.91 0.14-7.83-0.1-3.92-0.54-7.82-0.43-3.89-1.21-7.73-0.77-3.85-1.87-7.61l-0.3-0.15q1.24-0.33 2.47-0.72 1.23-0.38 2.44-0.81 1.21-0.44 2.4-0.93 1.2-0.48 2.37-1.02 4.94-0.1 9.88-0.41 4.94-0.32 9.86-0.85 4.92-0.53 9.81-1.27 4.89-0.74 9.75-1.7 0.72 8.56 1.13 17.14 0.4 8.58 0.47 17.16 0.08 8.59-0.17 17.18-0.25 8.58-0.83 17.15c-0.75 11.79-1.96 24.04-2.26 36.28q-1.65-0.08-3.3-0.08-1.65 0.01-3.3 0.1-1.65 0.09-3.29 0.28-1.64 0.18-3.27 0.46-2.59 0.25-5.2 0.42-2.61 0.16-5.22 0.24-2.61 0.08-5.22 0.06-2.61-0.01-5.22-0.12c-0.6 0-0.9 0.91-0.3 1.21q2.41 0.91 4.88 1.67 2.46 0.77 4.96 1.39 2.5 0.63 5.03 1.11 2.53 0.48 5.09 0.82-3.33 0.45-6.96 0.45-3.52 0.23-7.05 0.24-3.53 0.02-7.05-0.17-3.53-0.19-7.03-0.59-3.51-0.39-6.99-0.99c-0.6-0.3-0.9 0.76-0.3 1.06q3.31 1.16 6.68 2.17 3.36 1.01 6.77 1.86 3.41 0.86 6.85 1.55 3.44 0.69 6.91 1.22 2.84 0.48 5.72 0.6 2.88 0.11 5.75-0.13 2.86-0.25 5.68-0.86 2.81-0.61 5.53-1.57 0.04 6.91 1.27 13.71 1.23 6.81 3.61 13.3 2.38 6.49 5.83 12.48 3.45 5.99 7.88 11.3c2.12 2.27 6.05-0.76 3.93-3.02zm-26.6-52.91l4.08-1.36v1.96z"/>
		<path class="s0" d="m521.41 682.24q-1.3-2.52-2.33-5.17-1.02-2.65-1.74-5.4-0.73-2.74-1.15-5.55-0.41-2.81-0.52-5.65h-0.91q-0.71 2.94-0.77 5.96-0.06 3.02 0.55 5.98 0.61 2.96 1.85 5.72 1.24 2.75 3.06 5.17c0.18 0.22 0.41 0.4 0.68 0.48 0.27 0.08 0.56 0.05 0.8-0.08 0.25-0.13 0.43-0.36 0.52-0.63 0.08-0.27 0.05-0.56-0.04-0.83zm-37.49-126.68q-2.19 5.67-4.07 11.45-1.88 5.77-3.46 11.64-1.57 5.87-2.82 11.82-1.26 5.95-2.19 11.95c-3.63 16.63-5.6 33.26-8.32 50.04h0.76c3.02-16.03 7.56-32.2 11.64-48.22q1.76-5.91 3.36-11.86 1.6-5.96 3.03-11.95 1.44-5.99 2.71-12.02 1.28-6.03 2.39-12.1c0.05-0.4-0.01-0.81-0.22-1.15-0.2-0.34-0.54-0.59-0.93-0.69-0.39-0.1-0.8-0.04-1.14 0.17-0.35 0.21-0.59 0.54-0.74 0.92zm19.96 138.17c0-0.61-1.21-0.61-1.21 0l0.15 9.52h0.76c0.1-3.02 0.15-6.2 0.3-9.52zm200.45 108.54c-13.61 5.14-26.45 11.49-40.36 15.72q-5.63 1.54-11.32 2.85-5.68 1.32-11.42 2.42-5.73 1.1-11.5 1.97-5.77 0.88-11.57 1.53c-16.17 1.96-32.35 2.72-48.52 4.23q-25.25 2.57-50.19 7.11-0.25 0.04-0.4 0.23-0.15 0.2-0.13 0.45 0.04 0.24 0.23 0.4 0.2 0.15 0.45 0.12c17.54-1.36 35.07-0.45 52.61-0.9q25.7-0.61 51.24-3.48 11.17-0.47 22.15-2.53 10.98-2.06 21.55-5.67 10.57-3.61 20.53-8.69 9.94-5.08 19.07-11.53c0.55-0.33 0.95-0.86 1.12-1.48 0.17-0.62 0.09-1.28-0.23-1.84-0.32-0.55-0.85-0.96-1.46-1.13-0.62-0.17-1.28-0.08-1.85 0.22z"/>
	</g>
	<g id="Layer 1">
	</g>
</svg>